<svg height="64" viewBox="0 0 64 64" width="64" xmlns="http://www.w3.org/2000/svg"><g fill="none" fill-rule="evenodd"><path d="m25 20h15l10.0092876 39.1272152c.5471554 2.13888-.7938745 3.8727848-3.0040904 3.8727848h-29.0103944c-2.2062687 0-3.5499658-1.7389082-3.0040904-3.8727848z" fill="#f2eb52"/><path d="m25.8644693 23.9803066h12.8571428l8.1196558 35.068503c.2495072 1.0776127-.4460676 1.9511904-1.5398442 1.9511904h-26.016766c-1.0999397 0-1.788192-.8785853-1.5398442-1.9511904z" fill="#80d35b"/><circle cx="28" cy="41" fill="#5daf38" r="3"/><circle cx="39" cy="54" fill="#5daf38" r="3"/><circle cx="38.5" cy="44.5" fill="#5daf38" r="1.5"/><path d="m25 12h15v11h-15z" fill="#f2eb52"/><g fill="#5daf38"><circle cx="32.5" cy="29.5" r="1.5"/><circle cx="26.5" cy="56.5" r="1.5"/><circle cx="29.5" cy="19.5" r="1.5"/><circle cx="34.5" cy="5.5" r="1.5"/><circle cx="28.5" cy="2.5" r="1.5"/></g><path d="m22 9h21v3h-21z" fill="#e1da46"/></g></svg>