<svg width="128" height="128" viewBox="0 0 128 128" fill="none" xmlns="http://www.w3.org/2000/svg">
<path d="M0 12.2V8.70001C0 2.90001 2.88336 0 8.65002 0H119.35C125.117 0 128 2.90001 128 8.70001V12.2C127.833 6.73335 124.95 4 119.35 4H96H32H8.65002C3.05002 4 0.166667 6.73335 0 12.2Z" fill="#31DE7A"/>
<path d="M32 4H96C94.5667 14 91.7 22.9167 87.4 30.75C80.9334 42.6167 73.1333 48.55 64 48.55C54.8667 48.55 47.0666 42.6167 40.6 30.75C36.3333 22.9167 33.4667 14 32 4ZM59.15 22L59.6 21.2C60.1333 20.1 60.35 19 60.25 17.9C60.0833 16.6334 59.5333 15.7167 58.6 15.15L55.45 15.1C54.4167 15.5333 53.55 16.2667 52.85 17.3L52.4 18.15C51.0667 20.45 50.2667 22.6 50 24.6C49.7 26.6333 50.0167 27.9 50.95 28.4C51.8833 28.9667 53.1333 28.6166 54.7 27.35C56.3333 26.1166 57.8167 24.3333 59.15 22ZM74.4 16.05L73.7 14.9C72.6667 13.3334 71.3667 12.2167 69.8 11.55C68.0333 10.7833 66.45 10.8 65.05 11.6C63.6167 12.4333 62.8 13.8 62.6 15.7C62.4 17.4 62.7 19.0833 63.5 20.75L64.2 21.95C66.2333 25.4167 68.4333 28.1 70.8 30C73.2333 31.9 75.1666 32.4333 76.6 31.6C78 30.8 78.4667 28.8833 78 25.85C77.6333 22.8166 76.4334 19.55 74.4 16.05Z" fill="#2FD274"/>
<path d="M74.4 16.0501C76.4333 19.5501 77.6333 22.8167 78 25.8501C78.4666 28.8834 77.9999 30.8001 76.5999 31.6001C75.1666 32.4334 73.2333 31.9001 70.7999 30.0001C68.4333 28.1001 66.2333 25.4168 64.2 21.9501L63.5 20.7501C62.7 19.0834 62.3999 17.4001 62.5999 15.7001C62.7999 13.8001 63.6166 12.4334 65.0499 11.6001C66.4499 10.8001 68.0333 10.7834 69.7999 11.5501C71.3666 12.2167 72.6666 13.3334 73.7 14.9001L74.4 16.0501ZM59.15 22.0001C57.8167 24.3334 56.3333 26.1167 54.7 27.3501C53.1333 28.6167 51.8833 28.9668 50.95 28.4001C50.0166 27.9001 49.7 26.6334 50 24.6001C50.2666 22.6001 51.0667 20.4501 52.4 18.1501L52.8499 17.3001C53.5499 16.2667 54.4166 15.5334 55.45 15.1001L58.5999 15.1501C59.5333 15.7168 60.0833 16.6334 60.25 17.9001C60.35 19.0001 60.1333 20.1001 59.5999 21.2001L59.15 22.0001Z" fill="#29BB67"/>
<path d="M128 12.2V113.8C119.233 117.6 112.05 116.95 106.45 111.85L105.9 111.35L103.5 108.15C97.2667 100.217 90.5667 94.3333 83.4 90.5L88.95 89.3C95.55 87.6333 99.0166 85.6333 99.35 83.3V82.95V82.8C99.1833 80.3667 95.7167 78.2833 88.95 76.55L84.05 75.5L83.95 75.05C83.1167 71.2167 81.3333 67.8 78.6 64.8L76.25 62.55C72.7167 59.65 68.65 58.2 64.05 58.2C59.4167 58.2 55.35 59.65 51.85 62.55C51.0166 63.1833 50.2 63.9333 49.4 64.8C46.7 67.8 44.9167 71.2167 44.05 75.05L43.95 75.5L38.95 76.55C32.2833 78.25 28.85 80.3167 28.65 82.75V82.95L28.7 83.3C29 85.6333 32.4167 87.6333 38.95 89.3L41.45 89.9C33.9833 93.6334 27.0333 99.5333 20.6 107.6L19.1 109.55L17.75 111.35C13.6167 116.683 7.7 117.583 0 114.05V12.2C0.166667 6.73335 3.05002 4 8.65002 4H32C33.4667 14 36.3333 22.9167 40.6 30.75C47.0666 42.6167 54.8667 48.55 64 48.55C73.1333 48.55 80.9334 42.6167 87.4 30.75C91.7 22.9167 94.5667 14 96 4H119.35C124.95 4 127.833 6.73335 128 12.2ZM103.6 57.75C103.6 54.3833 102.433 51.5167 100.1 49.15C97.7 46.8167 94.8 45.65 91.4 45.65C88.0667 45.65 85.2166 46.8167 82.85 49.15C80.45 51.5167 79.25 54.3833 79.25 57.75C79.25 61.1167 80.45 63.95 82.85 66.25C85.2166 68.6833 88.0667 69.9 91.4 69.9C94.8 69.9 97.7 68.6833 100.1 66.25C102.433 63.95 103.6 61.1167 103.6 57.75ZM24.4 57.75C24.4 61.1167 25.6 63.95 28 66.25C30.4 68.6833 33.2666 69.9 36.6 69.9C39.7666 69.9 42.55 68.8 44.95 66.6L45.3 66.25C47.6333 63.95 48.8 61.1167 48.8 57.75C48.8 54.3833 47.6333 51.5167 45.3 49.15L44.95 48.85C42.55 46.7166 39.7666 45.65 36.6 45.65C33.2666 45.65 30.4 46.8167 28 49.15C25.6 51.5167 24.4 54.3833 24.4 57.75Z" fill="#2ECC71"/>
<path d="M24.3999 57.75C24.3999 54.3833 25.5999 51.5167 27.9999 49.15C30.3999 46.8167 33.2665 45.65 36.5999 45.65C39.7665 45.65 42.5499 46.7166 44.9499 48.85L45.2999 49.15C47.6332 51.5167 48.7999 54.3833 48.7999 57.75C48.7999 61.1167 47.6332 63.95 45.2999 66.25L44.9499 66.6C42.5499 68.8 39.7665 69.9 36.5999 69.9C33.2665 69.9 30.3999 68.6833 27.9999 66.25C25.5999 63.95 24.3999 61.1167 24.3999 57.75ZM97.7499 58C97.7499 55.8 96.9999 53.9833 95.4999 52.55C93.9999 51.1167 92.1999 50.4 90.0999 50.4C88.0332 50.4 86.2166 51.1167 84.6499 52.55C83.1499 53.9833 82.3999 55.8 82.3999 58C82.3999 60.1 83.1499 61.8667 84.6499 63.3C86.2166 64.8333 88.0332 65.6 90.0999 65.6C92.1999 65.6 93.9999 64.8333 95.4999 63.3C96.9999 61.8667 97.7499 60.1 97.7499 58ZM103.6 57.75C103.6 61.1167 102.433 63.95 100.1 66.25C97.6999 68.6833 94.7999 69.9 91.3999 69.9C88.0666 69.9 85.2165 68.6833 82.8499 66.25C80.4499 63.95 79.2499 61.1167 79.2499 57.75C79.2499 54.3833 80.4499 51.5167 82.8499 49.15C85.2165 46.8167 88.0666 45.65 91.3999 45.65C94.7999 45.65 97.6999 46.8167 100.1 49.15C102.433 51.5167 103.6 54.3833 103.6 57.75ZM30.3499 58C30.3499 60.1 31.0999 61.8667 32.5999 63.3C34.0332 64.8333 35.8166 65.6 37.9499 65.6C40.0499 65.6 41.8499 64.8333 43.3499 63.3C44.0499 62.6333 44.5832 61.9 44.9499 61.1C45.3832 60.1666 45.5999 59.1333 45.5999 58C45.5999 56.8333 45.3832 55.7667 44.9499 54.8C44.5832 53.9667 44.0499 53.2167 43.3499 52.55C41.8499 51.1167 40.0499 50.4 37.9499 50.4C35.8166 50.4 34.0332 51.1167 32.5999 52.55C31.0999 53.9833 30.3499 55.8 30.3499 58Z" fill="white"/>
<path d="M30.3499 58C30.3499 55.8 31.0999 53.9833 32.5999 52.55C34.0332 51.1167 35.8166 50.4 37.9499 50.4C40.0499 50.4 41.8499 51.1167 43.3499 52.55C44.0499 53.2167 44.5832 53.9667 44.9499 54.8C45.3832 55.7667 45.5999 56.8333 45.5999 58C45.5999 59.1333 45.3832 60.1666 44.9499 61.1C44.5832 61.9 44.0499 62.6333 43.3499 63.3C41.8499 64.8333 40.0499 65.6 37.9499 65.6C35.8166 65.6 34.0332 64.8333 32.5999 63.3C31.0999 61.8667 30.3499 60.1 30.3499 58ZM97.7499 58C97.7499 60.1 96.9999 61.8667 95.4999 63.3C93.9999 64.8333 92.1999 65.6 90.0999 65.6C88.0332 65.6 86.2166 64.8333 84.6499 63.3C83.1499 61.8667 82.3999 60.1 82.3999 58C82.3999 55.8 83.1499 53.9833 84.6499 52.55C86.2166 51.1167 88.0332 50.4 90.0999 50.4C92.1999 50.4 93.9999 51.1167 95.4999 52.55C96.9999 53.9833 97.7499 55.8 97.7499 58Z" fill="#5B5B5B"/>
<path d="M84.4999 82.45L84.2999 81.0499L83.95 79.0499C83.6833 77.7499 83.2999 76.4999 82.7999 75.2999C81.7999 72.9333 80.3999 70.7666 78.5999 68.7999L76.2499 66.5499C72.7166 63.6499 68.6499 62.2 64.0499 62.2C59.4166 62.2 55.3499 63.6499 51.8499 66.5499C51.0166 67.1833 50.2 67.9333 49.4 68.7999C47.6333 70.7666 46.2499 72.9333 45.2499 75.2999C44.7499 76.4999 44.3499 77.7499 44.0499 79.0499L43.65 81.0499L43.5499 82.5499L43.4999 82.2499L43.45 80.7499L43.65 77.0499L43.95 75.4999L44.0499 75.0499C44.9166 71.2166 46.7 67.7999 49.4 64.7999C50.2 63.9333 51.0166 63.1833 51.8499 62.5499C55.3499 59.6499 59.4166 58.2 64.0499 58.2C68.6499 58.2 72.7166 59.6499 76.2499 62.5499L78.5999 64.7999C81.3332 67.7999 83.1166 71.2166 83.95 75.0499L84.0499 75.4999L84.2999 77.0499L84.5999 80.7499L84.4999 82.2499V82.45Z" fill="#FFD738"/>
<path d="M84.4999 82.45L84.4 83.2999L83.95 84.8499C83.35 86.4166 82.2999 87.8666 80.7999 89.2L79.15 90.4999L78.5999 90.8499L77.9999 91.2499L77.5999 91.4999C73.7666 93.6333 69.2499 94.7 64.0499 94.7C58.8166 94.7 54.2833 93.6333 50.45 91.4999L50.0499 91.2499L49.4 90.8499L47.5499 89.4999L45.9999 87.95C45.1333 86.95 44.4999 85.8999 44.0999 84.7999L43.7 83.2999L43.5499 82.5499L43.65 81.0499L44.0499 79.0499C44.3499 77.7499 44.7499 76.4999 45.2499 75.2999C46.2499 72.9333 47.6333 70.7666 49.4 68.7999C50.2 67.9333 51.0166 67.1833 51.8499 66.5499C55.3499 63.6499 59.4166 62.2 64.0499 62.2C68.6499 62.2 72.7166 63.6499 76.2499 66.5499L78.5999 68.7999C80.3999 70.7666 81.7999 72.9333 82.7999 75.2999C83.2999 76.4999 83.6833 77.7499 83.95 79.0499L84.2999 81.0499L84.4999 82.45Z" fill="#FFCC00"/>
<path d="M84.4999 82.45V82.25L84.5999 80.75L84.2999 77.05L84.0499 75.5L88.9499 76.55C95.7166 78.2833 99.1832 80.3667 99.3499 82.8L83.9499 84.85L84.3999 83.3L84.4999 82.45ZM43.9499 75.5L43.6499 77.05L43.4499 80.75L43.4999 82.25L43.5499 82.55L43.6999 83.3L44.0999 84.8L28.6499 82.75C28.8499 80.3167 32.2832 78.25 38.9499 76.55L43.9499 75.5Z" fill="#EEBE00"/>
<path d="M44.0999 84.8C44.4999 85.9 45.1332 86.95 45.9999 87.95L47.5499 89.5L49.3999 90.85L50.0499 91.25L47.7999 91L45.4499 90.65L41.4499 89.9L38.9499 89.3C32.4166 87.6333 28.9999 85.6333 28.6999 83.3L28.6499 82.95V82.75L44.0999 84.8ZM77.9999 91.25L78.5999 90.85L79.1499 90.5L80.7999 89.2C82.2999 87.8667 83.3499 86.4166 83.9499 84.85L99.3499 82.8V82.95V83.3C99.0165 85.6333 95.5499 87.6333 88.9499 89.3L83.3999 90.5L80.1999 91L80.0499 91.05L77.9999 91.25Z" fill="#DEB100"/>
<path d="M78 91.25L80.05 91.05L80.2 91L83.4 90.5C90.5667 94.3333 97.2667 100.217 103.5 108.15L105.9 111.35L106.45 111.85C112.05 116.95 119.233 117.6 128 113.8V119.85C127.833 125.283 124.95 128 119.35 128H8.65002C3.05002 128 0.166667 125.283 0 119.85V114.05C7.7 117.583 13.6167 116.683 17.75 111.35L19.1 109.55L20.6 107.6C27.0333 99.5333 33.9833 93.6334 41.45 89.9L45.45 90.65L47.8 91L50.05 91.25L50.45 91.5C54.2833 93.6333 58.8167 94.7 64.05 94.7C69.25 94.7 73.7666 93.6333 77.6 91.5L78 91.25Z" fill="#F3F3F3"/>
</svg>
